<svg xmlns="http://www.w3.org/2000/svg" xmlns:xlink="http://www.w3.org/1999/xlink" viewBox="0 0 400.13 134.33"><defs><style>.cls-1{fill:#3a4084;}.cls-2{fill:url(#linear-gradient);}.cls-3{fill:url(#linear-gradient-2);}.cls-4{fill:url(#linear-gradient-3);}.cls-5{fill:url(#linear-gradient-4);}.cls-6{fill:url(#linear-gradient-5);}.cls-7{fill:url(#linear-gradient-6);}.cls-8{fill:url(#linear-gradient-7);}.cls-9{fill:url(#linear-gradient-8);}.cls-10{fill:url(#linear-gradient-9);}.cls-11{fill:url(#linear-gradient-10);}.cls-12{fill:url(#linear-gradient-11);}.cls-13{fill:url(#linear-gradient-12);}.cls-14{fill:url(#linear-gradient-13);}.cls-15{fill:url(#linear-gradient-14);}.cls-16{fill:#303030;}</style><linearGradient id="linear-gradient" x1="16.97" y1="116.41" x2="16.97" y2="76.57" gradientUnits="userSpaceOnUse"><stop offset="0" stop-color="#12a6da"/><stop offset="0.89" stop-color="#3a4084"/></linearGradient><linearGradient id="linear-gradient-2" x1="41.83" y1="116.41" x2="41.83" y2="76.57" gradientUnits="userSpaceOnUse"><stop offset="0" stop-color="#12a6da"/><stop offset="1" stop-color="#3a4084"/></linearGradient><linearGradient id="linear-gradient-3" x1="61.46" y1="116.41" x2="61.46" y2="76.57" xlink:href="#linear-gradient-2"/><linearGradient id="linear-gradient-4" x1="89.69" y1="116.41" x2="89.69" y2="76.57" xlink:href="#linear-gradient-2"/><linearGradient id="linear-gradient-5" x1="118.53" y1="116.41" x2="118.53" y2="76.57" xlink:href="#linear-gradient-2"/><linearGradient id="linear-gradient-6" x1="161.45" y1="116.41" x2="161.45" y2="76.57" gradientUnits="userSpaceOnUse"><stop offset="0.23" stop-color="#12a6da"/><stop offset="0.76" stop-color="#3a4084"/></linearGradient><linearGradient id="linear-gradient-7" x1="221.91" y1="116.41" x2="221.91" y2="76.57" xlink:href="#linear-gradient-2"/><linearGradient id="linear-gradient-8" x1="191.89" y1="116.41" x2="191.89" y2="76.57" xlink:href="#linear-gradient-2"/><linearGradient id="linear-gradient-9" x1="251.38" y1="116.41" x2="251.38" y2="76.57" xlink:href="#linear-gradient-2"/><linearGradient id="linear-gradient-10" x1="290.73" y1="116.41" x2="290.73" y2="76.57" xlink:href="#linear-gradient-2"/><linearGradient id="linear-gradient-11" x1="310.09" y1="116.41" x2="310.09" y2="76.57" xlink:href="#linear-gradient-2"/><linearGradient id="linear-gradient-12" x1="330.94" y1="116.41" x2="330.94" y2="76.57" xlink:href="#linear-gradient-2"/><linearGradient id="linear-gradient-13" x1="360.47" y1="116.41" x2="360.47" y2="76.57" xlink:href="#linear-gradient-2"/><linearGradient id="linear-gradient-14" x1="388.71" y1="116.41" x2="388.71" y2="76.57" xlink:href="#linear-gradient-2"/></defs><g id="Layer_2" data-name="Layer 2"><g id="Logo"><path class="cls-1" d="M149.81,22c.49-1.15,7.64,5.91,24.23,3.11,5-.85,8.53-2.42,12.87-4.45,9.28-4.36,20.77-3.34,20.89-2.72s-4.86-.44-15.33,4.57c-7.53,3.59-8.13,4.08-13.38,5.46-3.69,1-10.54,2.13-16,.76C154.55,26.58,149.43,22.87,149.81,22Z" transform="translate(-0.25)"/><path class="cls-1" d="M170.51,20c-.4-.67,5.67-5.92,13.71-7.15,3.86-.59,4.93.29,12.87-.25,5.53-.38,9.1-1,9.09-1.18s-5.25.86-11.53-.76c-4.63-1.19-8.31-3.46-8.16-3.87s3.59,1.23,9.34,1.94a38.51,38.51,0,0,0,13.8-.42c2.4-.56,3.65-1.14,7.23-1.77s5.73-.63,5.72-.84-4.31-1.22-9.33.08a24.29,24.29,0,0,1-9.51.55c-6-1-8.74-3-8.58-3.49.1-.3,2.4,1,6.56.84a77.28,77.28,0,0,0,9.68-.76c7.84-1.1,11.76-1.47,12.95-1.43,5.32.21,8.58,1.8,12.18,2.91.55.17.31-1.26,1.16-2.55s2-1.91,2.6-1.79-.59,3.54-.38,3.62S241.24.78,241.68.9s0,4.53.42,5.47c.38.77,1.41,1.11,1.43,2.86A3,3,0,0,1,242,11.88c-.3,0-.29-2-.7-1.75a17.51,17.51,0,0,1-3.15,1.3A4.18,4.18,0,0,0,236.05,13c-.58,1.09-.88,2.51-1.18,2.46s-.49-2.25.33-3.79A4.33,4.33,0,0,1,237,9.9c1.49-.8,3.48-.29,3.81-1.26.48-1.45-1.58-4.48-2.13-4.44s-.38,1.13-1.45,1.7c-.55.3-3-.25-4,0A38,38,0,0,0,226.92,8c-6.87,2.77-13,6.6-18.64,7.53-11.49,1.87-13.42-.42-23.64-.09C176,15.74,171.06,20.88,170.51,20Z" transform="translate(-0.25)"/><path class="cls-1" d="M230.49,13.47c1,.26.47,7.07,4.25,9.76C240,27,246.39,25.51,246.56,26c.25.74-3.37,2.39-7.23,2.36s-6.44-1.77-9.09-.76a21.42,21.42,0,0,0-7.57,5c-4.5,4.76-5.55,8.16-6.23,7.83s.48-4.44,3.62-8.16c4.24-5,9.42-7.73,9.68-8.5s-1.16-2.41-1.06-5.39C228.76,16,229.92,13.33,230.49,13.47Z" transform="translate(-0.25)"/><path class="cls-1" d="M198,36.22c.17.53,4.19-1.15,7.32.09,1.82.71,2.92,2.58,3.94,4.93C210.47,44,211,46.55,211.82,47s5.7-1.1,9.71-1.43c2.77-.23,5.54,0,11.07,1.41,7.69,2,13,4,13.29,3.59.4-.6-3.61-2.84-7.91-4.54a59.84,59.84,0,0,0-13.21-2.82c-6.14-.76-9.16.16-9.72-.14s-.63-6.25-5.42-8.19S197.78,35.57,198,36.22Z" transform="translate(-0.25)"/><path class="cls-1" d="M228.64,63.41a8.86,8.86,0,0,1,3.45-4.51c2-1.46,3.92-1.62,3.87-2.1-.06-.65-3.67-1-7.15-.88a47.24,47.24,0,0,0-11.06,1.55c-6.46,1.75-8.51,3.33-11.82,3.92-3.07.54-8.37.33-10.86-1.22-3.7-2.33-3.47-6.45-3.19-6.61s1,2.38,3.53,4c1.06.68,3.22,1.74,9.21,1,2.6-.3,4-.61,11.57-2.82a67.71,67.71,0,0,1,10.14-2.4c4.7-.52,7.11,0,8.16.34,3.31.93,7.07,3.37,6.6,4.33-.28.59-3.55.68-6.81,2.34C232.18,61.47,230.24,62.65,228.64,63.41Z" transform="translate(-0.25)"/><path class="cls-1" d="M242.6,12.55a6.06,6.06,0,0,1,1.92.35,7.91,7.91,0,0,1,1.74.44c.78.61,1.68,2,1.51,2.11s-1.17-.63-1.72-.81-1.3,0-1.54-.13a10.4,10.4,0,0,1-1-.89C243,13.13,242.43,12.8,242.6,12.55Z" transform="translate(-0.25)"/><path class="cls-1" d="M246.82,10.5c.45-.34,3,2.77,5.9,5.58,2.21,2.12,5,4.69,5.81,5.43a47.15,47.15,0,0,1,4.19,3.85,14.47,14.47,0,0,1,1.61,2,1.88,1.88,0,0,1,.06,2.13c-.39.53-.78.33-1.09.62-.57.56.09,1.47-.64,2s-1.77-.09-2.39.52c-.38.37-.46,1.27-.83,1.56a3.51,3.51,0,0,1-2.73.4c-1-.2-1.56-.88-2.32-2-.61-.92-1-2.42-2.19-3.45-1.75-1.51-4.46-1-4.55-1.34s1.21-1.07,2.53-1,1.64.31,3.11,1.26c1.8,1.16,3.28.58,3.55,1s-.14,1.19,0,1.9.3,1.41.93,1.43c1,0,.33-1.26,1.09-1.68.45-.25,1.5.61,2.11,0s-.11-1,.09-1.39a4,4,0,0,1,.75-.88c.36-.38.6-1,.15-1.37a27,27,0,0,1-2.53-2.3c-.64-.64-2.62-2.31-4.23-3.79-1.26-1.17-2.83-3-4.08-4.15C248.14,13.92,246.41,10.81,246.82,10.5Z" transform="translate(-0.25)"/><path class="cls-1" d="M185.89,51.49l-5-4.51a.79.79,0,0,1,0-1.11c1.24-1.23,3.4-2.38,3.4-5.85,0-6.12-7.22-7.12-8.64-7.12h-14a.48.48,0,0,0-.39.21l-2.78,4.19a.47.47,0,0,0,.39.72h17a2.11,2.11,0,0,1,1.49.62,2.09,2.09,0,0,1,.6,1.79,2.14,2.14,0,0,1-2.14,1.8H158.42a.47.47,0,0,0-.46.46v9.09a.47.47,0,0,0,.47.47h5.49a.47.47,0,0,0,.47-.47V47.9a.45.45,0,0,1,.46-.46h7.06a.51.51,0,0,1,.31.11l5.22,4.58a.45.45,0,0,0,.31.12h7.85A.43.43,0,0,0,185.89,51.49Z" transform="translate(-0.25)"/><path class="cls-1" d="M194,46.59h13.51a.47.47,0,0,1,.39.72L204.75,52a.47.47,0,0,1-.39.21H188.12a.47.47,0,0,1-.46-.47V33.37a.47.47,0,0,1,.46-.47H193a.47.47,0,0,1,.47.47V46.12A.47.47,0,0,0,194,46.59Z" transform="translate(-0.25)"/><path class="cls-1" d="M156.37,32.93V49.12a3.1,3.1,0,0,1-3.12,3.09,3.5,3.5,0,0,1-1.95-.67c-.49-.33-12.09-9.14-12.09-9.14v9.85H133V35.94a3.11,3.11,0,0,1,3.12-3,3.17,3.17,0,0,1,1.91.65l.23.19,1,.84,10.91,8.91V32.93Z" transform="translate(-0.25)"/><path class="cls-2" d="M32.42,115.22H27a1.73,1.73,0,0,1-1.71-1.09L11,92.11A48.88,48.88,0,0,1,7.42,85H7.31s.4,4.29.4,7.55V114a1.06,1.06,0,0,1-1.21,1.2h-5c-.8,0-1.15-.4-1.15-1.2V76c0-.8.35-1.2,1.15-1.2H8.28A1.77,1.77,0,0,1,10,75.92L22.92,95.71a46.08,46.08,0,0,1,3.66,7.21h.12s-.46-4.4-.46-7.84V76a1.06,1.06,0,0,1,1.2-1.2h5c.8,0,1.14.4,1.14,1.2v38C33.56,114.82,33.22,115.22,32.42,115.22Z" transform="translate(-0.25)"/><path class="cls-3" d="M41.8,81.52c-2.8,0-4.58-1.6-4.58-3.6S39,74.37,41.8,74.37s4.63,1.55,4.63,3.55S44.6,81.52,41.8,81.52Zm3,33.7H38.77c-.8,0-1.15-.4-1.15-1.2V86.79c0-.8.35-1.2,1.15-1.2h6.06a1.06,1.06,0,0,1,1.2,1.2V114A1.06,1.06,0,0,1,44.83,115.22Z" transform="translate(-0.25)"/><path class="cls-4" d="M61.63,116c-8.18,0-11.84-4.46-11.84-7.38a3.11,3.11,0,0,1,3.43-3.26A4,4,0,0,1,57,107.55c.92,2.06,2,3.78,4.58,3.78a3.42,3.42,0,0,0,3.55-3.55c0-6.35-14.76-4.86-14.76-14.3,0-5.61,4.69-8.64,11.27-8.64,7.32,0,10.64,3.72,10.64,6.47a2.84,2.84,0,0,1-3.15,3,3.78,3.78,0,0,1-3.54-2.23c-.75-1.66-1.83-3.26-4-3.26a3.16,3.16,0,0,0-3.49,3.37c0,6.3,15,4.41,15,14.54C73.13,112.19,68.84,116,61.63,116Z" transform="translate(-0.25)"/><path class="cls-5" d="M101.48,115.22H95.36c-.8,0-1.15-.4-1.15-1.2V94.62c0-3.14-1.88-4.69-4.46-4.69a6.23,6.23,0,0,0-4.57,1.83V114a1.07,1.07,0,0,1-1.21,1.2H77.91c-.8,0-1.14-.4-1.14-1.2V72.66c0-.8.34-1.2,1.14-1.2H84a1.07,1.07,0,0,1,1.21,1.2v15.1a12.31,12.31,0,0,1,8.29-2.92c4.92,0,9.15,3,9.15,8.47V114C102.62,114.82,102.28,115.22,101.48,115.22Z" transform="translate(-0.25)"/><path class="cls-6" d="M128.63,114.13c-1.43.92-5.49,1.83-9.33,1.83-6.69,0-13.1-2.06-13.1-8.18,0-7.84,9.5-9.67,16.59-11V93c0-2.46-1.48-3.89-3.54-3.89-2.63,0-4,2.12-4.46,3.78a3.71,3.71,0,0,1-3.72,2.4c-2,0-3.61-1.14-3.61-3.26,0-2.8,3.61-7.21,12.93-7.21,5.84,0,10.47,2.86,10.47,9v15.62C130.86,111.9,130.35,113.05,128.63,114.13Zm-5.84-13.73c-4.4.86-8.58,2.18-8.58,6.7,0,2.57,1.78,4.52,4.87,4.52,1.88,0,3.71-.69,3.71-2.81Z" transform="translate(-0.25)"/><path class="cls-7" d="M175.2,115.22h-7a1.67,1.67,0,0,1-1.72-1l-5.09-11.85c-.75-1.77-2.18-4.06-4.29-4.06h-1.78V114c0,.8-.34,1.2-1.14,1.2h-6.46a1.06,1.06,0,0,1-1.21-1.2V76.78c0-.8.29-1.2,1.21-1.49a53.09,53.09,0,0,1,10.75-1c11.56,0,16.08,4.92,16.08,11.84,0,6.18-4.87,9.32-8.53,10.41v.11a13.28,13.28,0,0,1,4.52,5.15L176,113.1a3.12,3.12,0,0,1,.34.92C176.35,114.82,176,115.22,175.2,115.22ZM158.61,79.41a19.69,19.69,0,0,0-3.26.23V94.22a24.26,24.26,0,0,0,2.46.12c5,0,7.84-2.8,7.84-7.21C165.65,82,163.42,79.41,158.61,79.41Z" transform="translate(-0.25)"/><path class="cls-8" d="M232,114.13c-1.43.92-5.49,1.83-9.32,1.83-6.7,0-13.1-2.06-13.1-8.18,0-7.84,9.49-9.67,16.59-11V93c0-2.46-1.49-3.89-3.55-3.89-2.63,0-4,2.12-4.46,3.78a3.71,3.71,0,0,1-3.72,2.4c-2,0-3.6-1.14-3.6-3.26,0-2.8,3.6-7.21,12.92-7.21,5.84,0,10.47,2.86,10.47,9v15.62C234.23,111.9,233.72,113.05,232,114.13Zm-5.83-13.73c-4.41.86-8.58,2.18-8.58,6.7,0,2.57,1.77,4.52,4.86,4.52,1.89,0,3.72-.69,3.72-2.81Z" transform="translate(-0.25)"/><path class="cls-9" d="M191.87,116c-8.7,0-14-6.35-14-15.61s5.43-15.51,14-15.51,14.07,6.24,14.07,15.51S200.56,116,191.87,116Zm-.06-26.6c-3.72,0-5.38,4.18-5.38,10.47s1.72,11.1,5.49,11.1c4,0,5.44-4.23,5.44-10.58S195.64,89.36,191.81,89.36Z" transform="translate(-0.25)"/><path class="cls-10" d="M262.6,114c-1.55,1-5.67,2-9.56,2-10.92,0-15.1-6.46-15.1-14.81s4.52-16.25,13.27-16.25a10.16,10.16,0,0,1,5.27,1.37V72.66c0-.8.34-1.2,1.14-1.2h6a1.06,1.06,0,0,1,1.2,1.2v37A4.4,4.4,0,0,1,262.6,114Zm-6.12-23.63a5.84,5.84,0,0,0-3.55-1.08c-3.89,0-6.52,4.06-6.52,10.92,0,7.15,3.26,10.82,6.63,10.82,2.29,0,3.44-.92,3.44-2.58Z" transform="translate(-0.25)"/><path class="cls-11" d="M300.54,115.22H281a1.06,1.06,0,0,1-1.2-1.2V76a1.06,1.06,0,0,1,1.2-1.2h6.75c.8,0,1.14.4,1.14,1.2v33.18h11.67c.8,0,1.15.4,1.15,1.2V114C301.69,114.82,301.34,115.22,300.54,115.22Z" transform="translate(-0.25)"/><path class="cls-12" d="M310.06,81.52c-2.8,0-4.57-1.6-4.57-3.6s1.77-3.55,4.57-3.55,4.64,1.55,4.64,3.55S312.87,81.52,310.06,81.52Zm3,33.7H307c-.8,0-1.14-.4-1.14-1.2V86.79c0-.8.34-1.2,1.14-1.2h6.07a1.06,1.06,0,0,1,1.2,1.2V114A1.06,1.06,0,0,1,313.1,115.22Z" transform="translate(-0.25)"/><path class="cls-13" d="M342.73,115.22h-6.12c-.8,0-1.15-.4-1.15-1.2V94c0-2.46-1.14-4.7-4.8-4.7s-4.24,1.72-4.24,3.49V114a1.06,1.06,0,0,1-1.2,1.2h-6.06c-.8,0-1.15-.4-1.15-1.2V90.22c0-2,.52-2.8,2.35-3.66,2.06-1,6.12-1.72,10.53-1.72,7.15,0,13,2.35,13,8.75V114C343.87,114.82,343.53,115.22,342.73,115.22Z" transform="translate(-0.25)"/><path class="cls-14" d="M361.47,116c-7.67,0-13.84-4.69-13.84-15.79,0-10.64,6.46-15.33,13.78-15.33A11.39,11.39,0,0,1,373.2,96.46c0,1.65-.69,2.11-2.12,2.34l-15.73,2.57c.51,4.41,2.92,8.07,7.78,8.07,3.32,0,5.6-2.29,6.75-4a2.14,2.14,0,0,1,1.77-1,1.74,1.74,0,0,1,1.66,1.83C373.31,110.53,368.51,116,361.47,116Zm-1-26.66c-4,0-5.55,4.18-5.67,8l10.53-1.77C365.25,92.45,364,89.3,360.5,89.3Z" transform="translate(-0.25)"/><path class="cls-15" d="M388.89,116c-8.18,0-11.85-4.46-11.85-7.38a3.12,3.12,0,0,1,3.44-3.26,4.06,4.06,0,0,1,3.77,2.23c.92,2.06,2,3.78,4.58,3.78a3.43,3.43,0,0,0,3.55-3.55c0-6.35-14.76-4.86-14.76-14.3,0-5.61,4.69-8.64,11.27-8.64,7.32,0,10.64,3.72,10.64,6.47a2.84,2.84,0,0,1-3.15,3,3.81,3.81,0,0,1-3.55-2.23c-.74-1.66-1.83-3.26-4-3.26a3.16,3.16,0,0,0-3.49,3.37c0,6.3,15,4.41,15,14.54C400.38,112.19,396.09,116,388.89,116Z" transform="translate(-0.25)"/><path class="cls-16" d="M3.05,134.15.25,122.69H2.49l1.09,5.2c.28,1.4.55,2.86.74,4h0c.18-1.2.5-2.57.83-4l1.23-5.18H8.63L9.76,128c.28,1.35.52,2.63.69,3.88h0c.2-1.27.48-2.58.78-4l1.19-5.18h2.13L11.5,134.15H9.27l-1.19-5.4a35.37,35.37,0,0,1-.64-3.62h0a34.88,34.88,0,0,1-.75,3.62l-1.33,5.4Z" transform="translate(-0.25)"/><path class="cls-16" d="M22.51,130.59a2.25,2.25,0,0,0,2.55,2.15,6.39,6.39,0,0,0,2.29-.38l.31,1.44a7.49,7.49,0,0,1-2.89.53,3.93,3.93,0,0,1-4.27-4.2c0-2.28,1.39-4.45,4.05-4.45s3.57,2.22,3.57,4a4.3,4.3,0,0,1-.08.88Zm3.64-1.46a1.79,1.79,0,0,0-1.73-2,2.06,2.06,0,0,0-1.92,2Z" transform="translate(-0.25)"/><path class="cls-16" d="M49.42,122.69v6.68c0,2.24.93,3.28,2.35,3.28s2.41-1,2.41-3.28v-6.68h2.09v6.54c0,3.53-1.81,5.1-4.58,5.1s-4.37-1.48-4.37-5.08v-6.56Z" transform="translate(-0.25)"/><path class="cls-16" d="M64.35,128.33c0-1,0-1.74-.07-2.46h1.83l.1,1.24h.05a3,3,0,0,1,2.64-1.43c1.44,0,2.94.93,2.94,3.55v4.92H69.75v-4.67c0-1.19-.44-2.09-1.58-2.09a1.74,1.74,0,0,0-1.63,1.22,2.2,2.2,0,0,0-.1.67v4.87H64.35Z" transform="translate(-0.25)"/><path class="cls-16" d="M87.48,122.08v9.75c0,.84,0,1.75.07,2.32H85.68l-.09-1.31h0a3,3,0,0,1-2.69,1.49c-2,0-3.54-1.68-3.54-4.23,0-2.77,1.72-4.42,3.71-4.42a2.61,2.61,0,0,1,2.32,1.08h0v-4.68Zm-2.09,7.24a2.56,2.56,0,0,0,0-.55,1.85,1.85,0,0,0-1.8-1.47c-1.35,0-2.09,1.19-2.09,2.73s.75,2.63,2.07,2.63a1.86,1.86,0,0,0,1.8-1.49,2.37,2.37,0,0,0,.07-.61Z" transform="translate(-0.25)"/><path class="cls-16" d="M97,130.59a2.26,2.26,0,0,0,2.56,2.15,6.33,6.33,0,0,0,2.28-.38l.31,1.44a7.49,7.49,0,0,1-2.89.53,3.92,3.92,0,0,1-4.26-4.2c0-2.28,1.39-4.45,4-4.45s3.56,2.22,3.56,4a4.47,4.47,0,0,1-.07.88Zm3.64-1.46a1.78,1.78,0,0,0-1.72-2,2,2,0,0,0-1.92,2Z" transform="translate(-0.25)"/><path class="cls-16" d="M110.06,128.53c0-1.11,0-1.92-.07-2.66h1.82l.07,1.57h.06a2.47,2.47,0,0,1,2.27-1.76,1.89,1.89,0,0,1,.49,0v2a2.71,2.71,0,0,0-.62-.06,1.85,1.85,0,0,0-1.87,1.58,3.16,3.16,0,0,0,0,.63v4.3h-2.1Z" transform="translate(-0.25)"/><path class="cls-16" d="M121.79,132.22a4.6,4.6,0,0,0,2.12.61c.92,0,1.33-.39,1.33-.93s-.34-.85-1.36-1.21c-1.62-.55-2.3-1.44-2.29-2.42,0-1.45,1.21-2.59,3.14-2.59a4.77,4.77,0,0,1,2.2.5l-.42,1.47a3.74,3.74,0,0,0-1.75-.48c-.74,0-1.16.37-1.16.88s.4.78,1.45,1.16c1.5.53,2.2,1.3,2.2,2.52,0,1.51-1.17,2.6-3.36,2.6a5.48,5.48,0,0,1-2.52-.58Z" transform="translate(-0.25)"/><path class="cls-16" d="M137.16,123.5v2.37h2v1.56h-2v3.65c0,1,.27,1.53,1.07,1.53a3.17,3.17,0,0,0,.81-.09l0,1.59a4.57,4.57,0,0,1-1.52.22,2.43,2.43,0,0,1-1.8-.69,3.27,3.27,0,0,1-.65-2.32v-3.89h-1.18v-1.56h1.18V124Z" transform="translate(-0.25)"/><path class="cls-16" d="M151.17,134.15l-.15-.93H151a3,3,0,0,1-2.44,1.11,2.45,2.45,0,0,1-2.61-2.46c0-2.09,1.87-3.14,4.91-3.13v-.14c0-.54-.21-1.45-1.68-1.44a4.35,4.35,0,0,0-2.22.62l-.42-1.36a6,6,0,0,1,3-.74c2.66,0,3.41,1.68,3.41,3.49v3a12.54,12.54,0,0,0,.13,2Zm-.28-4.06c-1.48,0-2.89.29-2.89,1.56a1.1,1.1,0,0,0,1.19,1.19,1.7,1.7,0,0,0,1.64-1.15,1.4,1.4,0,0,0,.06-.45Z" transform="translate(-0.25)"/><path class="cls-16" d="M160.93,128.33c0-1,0-1.74-.07-2.46h1.83l.1,1.24h.05a3,3,0,0,1,2.64-1.43c1.44,0,2.94.93,2.94,3.55v4.92h-2.1v-4.67c0-1.19-.43-2.09-1.58-2.09a1.72,1.72,0,0,0-1.62,1.22,1.93,1.93,0,0,0-.1.67v4.87h-2.09Z" transform="translate(-0.25)"/><path class="cls-16" d="M184.05,122.08v9.75c0,.84,0,1.75.07,2.32h-1.86l-.09-1.31h0a3,3,0,0,1-2.69,1.49c-2,0-3.54-1.68-3.54-4.23,0-2.77,1.72-4.42,3.71-4.42a2.63,2.63,0,0,1,2.32,1.08h0v-4.68ZM182,129.32a3.39,3.39,0,0,0,0-.55,1.85,1.85,0,0,0-1.8-1.47c-1.35,0-2.1,1.19-2.1,2.73s.76,2.63,2.07,2.63a1.86,1.86,0,0,0,1.81-1.49,2.38,2.38,0,0,0,.06-.61Z" transform="translate(-0.25)"/><path class="cls-16" d="M212.06,133.81a7.48,7.48,0,0,1-3,.52c-3.63,0-5.85-2.29-5.85-5.78a5.77,5.77,0,0,1,6.14-6,6.35,6.35,0,0,1,2.77.51l-.46,1.67a5.28,5.28,0,0,0-2.23-.45c-2.33,0-4,1.46-4,4.21,0,2.52,1.48,4.12,4,4.12a6.09,6.09,0,0,0,2.29-.41Z" transform="translate(-0.25)"/><path class="cls-16" d="M226.67,131.67c0,1,0,1.8.07,2.48h-1.83l-.1-1.25h-.05a3,3,0,0,1-2.65,1.43c-1.51,0-2.88-.9-2.88-3.61v-4.85h2.1v4.5c0,1.38.43,2.26,1.54,2.26a1.75,1.75,0,0,0,1.6-1.12,1.8,1.8,0,0,0,.11-.65v-5h2.09Z" transform="translate(-0.25)"/><path class="cls-16" d="M234.62,132.22a4.53,4.53,0,0,0,2.11.61c.92,0,1.34-.39,1.34-.93s-.35-.85-1.36-1.21c-1.62-.55-2.3-1.44-2.29-2.42,0-1.45,1.21-2.59,3.14-2.59a4.69,4.69,0,0,1,2.19.5l-.41,1.47a3.74,3.74,0,0,0-1.75-.48c-.75,0-1.16.37-1.16.88s.4.78,1.45,1.16c1.5.53,2.2,1.3,2.2,2.52,0,1.51-1.17,2.6-3.36,2.6a5.48,5.48,0,0,1-2.52-.58Z" transform="translate(-0.25)"/><path class="cls-16" d="M250,123.5v2.37h2v1.56h-2v3.65c0,1,.27,1.53,1.07,1.53a3.23,3.23,0,0,0,.81-.09l0,1.59a4.57,4.57,0,0,1-1.52.22,2.43,2.43,0,0,1-1.8-.69,3.27,3.27,0,0,1-.65-2.32v-3.89h-1.19v-1.56h1.19V124Z" transform="translate(-0.25)"/><path class="cls-16" d="M267.1,129.93a4.1,4.1,0,0,1-4.25,4.4,4,4,0,0,1-4.14-4.26,4.09,4.09,0,0,1,4.28-4.39A4,4,0,0,1,267.1,129.93Zm-6.24.09c0,1.59.79,2.79,2.06,2.79s2-1.15,2-2.82c0-1.3-.58-2.79-2-2.79S260.86,128.64,260.86,130Z" transform="translate(-0.25)"/><path class="cls-16" d="M274.6,128.33c0-1,0-1.74-.06-2.46h1.78l.1,1.22h.05a2.84,2.84,0,0,1,2.55-1.41,2.37,2.37,0,0,1,2.29,1.53h0a3.36,3.36,0,0,1,1-1,2.83,2.83,0,0,1,1.68-.49c1.37,0,2.76.94,2.76,3.6v4.87h-2v-4.58c0-1.38-.48-2.19-1.47-2.19a1.58,1.58,0,0,0-1.46,1.1,2.28,2.28,0,0,0-.11.7v5h-2v-4.79c0-1.16-.46-2-1.42-2a1.67,1.67,0,0,0-1.51,1.18,2,2,0,0,0-.1.69v4.9h-2Z" transform="translate(-0.25)"/><path class="cls-16" d="M296.27,130.59a2.26,2.26,0,0,0,2.56,2.15,6.33,6.33,0,0,0,2.28-.38l.31,1.44a7.49,7.49,0,0,1-2.89.53,3.92,3.92,0,0,1-4.26-4.2c0-2.28,1.39-4.45,4.05-4.45s3.56,2.22,3.56,4a4.47,4.47,0,0,1-.07.88Zm3.64-1.46a1.78,1.78,0,0,0-1.72-2,2,2,0,0,0-1.92,2Z" transform="translate(-0.25)"/><path class="cls-16" d="M309.35,128.53c0-1.11,0-1.92-.07-2.66h1.82l.07,1.57h.06a2.47,2.47,0,0,1,2.27-1.76,1.89,1.89,0,0,1,.49,0v2a2.71,2.71,0,0,0-.62-.06,1.85,1.85,0,0,0-1.87,1.58,3.16,3.16,0,0,0-.05.63v4.3h-2.1Z" transform="translate(-0.25)"/><path class="cls-16" d="M332.93,134.15V122.69h2.4l3,4.92a32.29,32.29,0,0,1,1.95,3.84h0a47.45,47.45,0,0,1-.19-4.75v-4H342v11.46h-2.17l-3-5a37.31,37.31,0,0,1-2.06-4l-.05,0c.08,1.48.11,3,.11,4.88v4.1Z" transform="translate(-0.25)"/><path class="cls-16" d="M351.57,130.59a2.26,2.26,0,0,0,2.56,2.15,6.33,6.33,0,0,0,2.28-.38l.31,1.44a7.49,7.49,0,0,1-2.89.53,3.92,3.92,0,0,1-4.26-4.2c0-2.28,1.39-4.45,4.05-4.45s3.56,2.22,3.56,4a4.47,4.47,0,0,1-.07.88Zm3.64-1.46a1.78,1.78,0,0,0-1.72-2,2,2,0,0,0-1.92,2Z" transform="translate(-0.25)"/><path class="cls-16" d="M366.13,130.59a2.25,2.25,0,0,0,2.55,2.15,6.43,6.43,0,0,0,2.29-.38l.31,1.44a7.54,7.54,0,0,1-2.9.53,3.92,3.92,0,0,1-4.26-4.2c0-2.28,1.39-4.45,4.05-4.45s3.57,2.22,3.57,4a4.3,4.3,0,0,1-.08.88Zm3.64-1.46a1.79,1.79,0,0,0-1.73-2,2.06,2.06,0,0,0-1.92,2Z" transform="translate(-0.25)"/><path class="cls-16" d="M386.83,122.08v9.75c0,.84,0,1.75.07,2.32H385l-.09-1.31h0a3,3,0,0,1-2.68,1.49c-2,0-3.55-1.68-3.55-4.23,0-2.77,1.72-4.42,3.71-4.42a2.61,2.61,0,0,1,2.32,1.08h0v-4.68Zm-2.09,7.24a2.56,2.56,0,0,0-.05-.55,1.85,1.85,0,0,0-1.8-1.47c-1.35,0-2.09,1.19-2.09,2.73s.75,2.63,2.07,2.63a1.86,1.86,0,0,0,1.8-1.49,2.37,2.37,0,0,0,.07-.61Z" transform="translate(-0.25)"/><path class="cls-16" d="M394.76,132.22a4.53,4.53,0,0,0,2.11.61c.92,0,1.33-.39,1.33-.93s-.34-.85-1.35-1.21c-1.62-.55-2.3-1.44-2.29-2.42,0-1.45,1.21-2.59,3.14-2.59a4.69,4.69,0,0,1,2.19.5l-.41,1.47a3.74,3.74,0,0,0-1.75-.48c-.75,0-1.16.37-1.16.88s.4.78,1.44,1.16c1.51.53,2.2,1.3,2.21,2.52,0,1.51-1.17,2.6-3.36,2.6a5.48,5.48,0,0,1-2.52-.58Z" transform="translate(-0.25)"/></g></g></svg>